<svg width="17" height="20" viewBox="0 0 17 20" fill="none" xmlns="http://www.w3.org/2000/svg">
<g id="book">
<path id="Vector" d="M3.46497 3.46501V2.84875C3.46639 2.35887 3.66162 1.88946 4.00802 1.54306C4.35443 1.19666 4.82384 1.00142 5.31372 1H13.9412C14.4311 1.00142 14.9005 1.19666 15.2469 1.54306C15.5933 1.88946 15.7886 2.35887 15.79 2.84875V17.0225L12.7087 14.5575" stroke="black" stroke-linejoin="round"/>
<path id="Vector_2" d="M10.86 4.08118H2.84875C2.35887 4.0826 1.88946 4.27784 1.54306 4.62424C1.19666 4.97064 1.00142 5.44005 1 5.92993V19.4875L6.85439 14.5575L12.7088 19.4875V5.92993C12.7074 5.44005 12.5121 4.97064 12.1657 4.62424C11.8193 4.27784 11.3499 4.0826 10.86 4.08118V4.08118Z" stroke="black" stroke-linejoin="round"/>
</g>
</svg>
