<svg width="19" height="18" viewBox="0 0 19 18" fill="none" xmlns="http://www.w3.org/2000/svg">
<g id="certificate">
<path id="Vector" d="M5.95837 12.3333V1L7.16254 1.62963L8.36671 1L9.56862 1.62963L10.7867 1L11.9792 1.62963L13.1755 1L14.377 1.62963L15.5917 1L16.7963 1.62963L18 1V9.81481" stroke="black" stroke-linejoin="round"/>
<path id="Vector_2" d="M18 10.2084V14.3403C18 15.1231 17.6802 15.8738 17.1109 16.4273C16.5416 16.9808 15.7694 17.2917 14.9643 17.2917V17.2917C14.1592 17.2917 13.387 16.9808 12.8177 16.4273C12.2484 15.8738 11.9286 15.1231 11.9286 14.3403V12.5695H1.60717C1.52724 12.5688 1.44797 12.5836 1.37399 12.613C1.3 12.6424 1.23279 12.6859 1.17627 12.7408C1.11975 12.7958 1.07506 12.8611 1.0448 12.9331C1.01454 13.005 0.999315 13.0821 1.00002 13.1598C1.00002 15.5209 1.25578 17.2917 4.03573 17.2917H14.9643" stroke="black" stroke-linejoin="round"/>
<path id="Vector_3" d="M10.6806 8.08333H15.875M8.08337 5.25H15.875H8.08337Z" stroke="black" stroke-linecap="round" stroke-linejoin="round"/>
</g>
</svg>
