<svg width="27" height="24" viewBox="0 0 27 24" fill="none" xmlns="http://www.w3.org/2000/svg">
<path id="courses" d="M20.7692 2H6.23077C5.95535 2 5.69122 1.89464 5.49647 1.70711C5.30172 1.51957 5.19231 1.26522 5.19231 1C5.19231 0.734784 5.30172 0.48043 5.49647 0.292893C5.69122 0.105357 5.95535 0 6.23077 0H20.7692C21.0446 0 21.3088 0.105357 21.5035 0.292893C21.6983 0.48043 21.8077 0.734784 21.8077 1C21.8077 1.26522 21.6983 1.51957 21.5035 1.70711C21.3088 1.89464 21.0446 2 20.7692 2ZM22.8462 5H4.15385C3.87843 5 3.61429 4.89464 3.41954 4.70711C3.22479 4.51957 3.11538 4.26522 3.11538 4C3.11538 3.73478 3.22479 3.48043 3.41954 3.29289C3.61429 3.10536 3.87843 3 4.15385 3H22.8462C23.1216 3 23.3857 3.10536 23.5805 3.29289C23.7752 3.48043 23.8846 3.73478 23.8846 4C23.8846 4.26522 23.7752 4.51957 23.5805 4.70711C23.3857 4.89464 23.1216 5 22.8462 5ZM24.0878 24H2.91224C2.14013 23.9992 0 24 0 24C0 24 0.00085895 21.9391 0 21.1956V8.80437C0.00085895 8.06086 0 6 0 6C0 6 2.14013 6.00083 2.91224 6H24.0878C24.8599 6.00083 27 6 27 6C27 6 26.9991 8.06086 27 8.80437V21.1956C26.9991 21.9391 27 24 27 24C27 24 24.8599 23.9992 24.0878 24Z" fill="#595757"/>
</svg>
