<svg width="49" height="49" viewBox="0 0 49 49" fill="none" xmlns="http://www.w3.org/2000/svg">
<g id="logo">
<path id="Vector" d="M24.4976 1C11.5208 1 1 11.5219 1 24.5C1 37.4781 11.5208 48 24.4976 48C37.4743 48 47.9951 37.4781 47.9951 24.5C47.9951 11.5219 37.4743 1 24.4976 1Z" stroke="white" stroke-width="2" stroke-miterlimit="10"/>
<path id="Vector_2" d="M24.9675 1C18.4277 1 12.2788 11.5219 12.2788 24.5C12.2788 37.4781 18.4277 48 24.9675 48C31.5072 48 37.6561 37.4781 37.6561 24.5C37.6561 11.5219 31.5072 1 24.9675 1Z" stroke="white" stroke-width="2" stroke-miterlimit="10"/>
<path id="Vector_3" d="M40.4757 39.5398C36.1991 36.5031 30.8153 34.6923 24.9673 34.6923C19.1194 34.6923 13.7356 36.5031 9.45898 39.5398M9.45898 8.51976C13.7356 11.5564 19.1194 13.3673 24.9673 13.3673C30.8153 13.3673 36.1991 11.5564 40.4757 8.51976H9.45898Z" stroke="white" stroke-width="2" stroke-linecap="round" stroke-linejoin="round"/>
<path id="Vector_4" d="M47.9951 24.5H1M24.4976 1V48V1Z" stroke="white" stroke-width="2" stroke-miterlimit="10"/>
</g>
</svg>
