<svg width="27" height="19" viewBox="0 0 27 19" fill="none" xmlns="http://www.w3.org/2000/svg">
<path id="people" d="M18.2998 9.49999C17.1862 9.49999 16.1093 9.00448 15.2665 8.10522C14.447 7.22809 13.9465 6.0584 13.8582 4.81261C13.7639 3.48369 14.1707 2.26165 15.0033 1.37102C15.8358 0.480397 16.9998 0 18.2998 0C19.5906 0 20.7579 0.489033 21.5877 1.3775C22.4257 2.2746 22.8336 3.49448 22.7393 4.81207C22.6489 6.05948 22.1489 7.22863 21.331 8.10468C20.4903 9.00448 19.414 9.49999 18.2998 9.49999ZM25.4406 19H11.1596C10.93 19.0012 10.7032 18.9499 10.4966 18.8501C10.29 18.7502 10.1091 18.6045 9.96795 18.424C9.81818 18.2284 9.71476 18.0016 9.66542 17.7605C9.61608 17.5195 9.6221 17.2704 9.68304 17.032C10.1391 15.207 11.269 13.6935 12.9504 12.6555C14.4426 11.7346 16.3423 11.2273 18.2998 11.2273C20.2959 11.2273 22.1457 11.7131 23.6466 12.6334C25.3317 13.6659 26.4633 15.1881 26.9172 17.0352C26.9774 17.2738 26.9827 17.5229 26.9328 17.7638C26.8829 18.0048 26.7791 18.2314 26.629 18.4267C26.488 18.6063 26.3075 18.7514 26.1015 18.8507C25.8955 18.9501 25.6694 19.0011 25.4406 19ZM7.09573 11.4432C5.18962 11.4432 3.51371 9.67703 3.35825 7.50661C3.28134 6.39468 3.62909 5.36641 4.33325 4.61235C5.02983 3.86585 6.01241 3.45454 7.09573 3.45454C8.17906 3.45454 9.15406 3.86801 9.85443 4.61883C10.564 5.37883 10.9107 6.40493 10.8294 7.50769C10.674 9.67757 8.9986 11.4432 7.09573 11.4432ZM10.6523 13.1408C9.69951 12.6765 8.46289 12.4444 7.09628 12.4444C5.50053 12.4444 3.95083 12.859 2.73209 13.6114C1.35031 14.4659 0.420811 15.7101 0.0454382 17.2123C-0.00949462 17.4283 -0.0146903 17.654 0.0302398 17.8723C0.0751699 18.0907 0.169063 18.2961 0.304895 18.4732C0.433783 18.638 0.598902 18.7713 0.787554 18.8626C0.976205 18.9539 1.18336 19.0009 1.3931 19H8.36246C8.46394 19 8.5622 18.9645 8.6401 18.8997C8.718 18.8348 8.77061 18.7448 8.78875 18.6453C8.79471 18.6113 8.80229 18.5773 8.81096 18.5439C9.27029 16.7054 9.38968 15.1519 10.98 14.0195C11.0385 13.9775 11.0855 13.9216 11.1169 13.8569C11.1482 13.7922 11.1629 13.7207 11.1595 13.6489C11.1561 13.5771 11.1348 13.5073 11.0975 13.4458C11.0602 13.3844 11.0081 13.3331 10.9459 13.2967C10.8608 13.2471 10.7633 13.1947 10.6523 13.1408Z" fill="#595757"/>
</svg>
