<svg width="17" height="17" viewBox="0 0 17 17" fill="none" xmlns="http://www.w3.org/2000/svg">
<g id="play icon">
<path id="Vector" d="M16.1397 8.5C16.1397 4.35938 12.749 1 8.56985 1C4.39066 1 1 4.35938 1 8.5C1 12.6406 4.39066 16 8.56985 16C12.749 16 16.1397 12.6406 16.1397 8.5Z" stroke="black" stroke-miterlimit="10"/>
<path id="Vector_2" d="M7.00538 11.5642L11.5177 8.86343C11.5806 8.82546 11.6326 8.77211 11.6687 8.70849C11.7047 8.64487 11.7237 8.57312 11.7237 8.50015C11.7237 8.42718 11.7047 8.35543 11.6687 8.29181C11.6326 8.22819 11.5806 8.17483 11.5177 8.13687L7.00538 5.43609C6.9407 5.3977 6.86688 5.37704 6.79149 5.37624C6.7161 5.37545 6.64185 5.39454 6.57635 5.43155C6.51086 5.46857 6.45649 5.52218 6.41881 5.58688C6.38114 5.65159 6.36151 5.72506 6.36195 5.79976V11.2005C6.36151 11.2752 6.38114 11.3487 6.41881 11.4134C6.45649 11.4781 6.51086 11.5317 6.57635 11.5687C6.64185 11.6058 6.7161 11.6249 6.79149 11.6241C6.86688 11.6233 6.9407 11.6026 7.00538 11.5642Z" fill="black"/>
</g>
</svg>
