<svg width="22" height="38" viewBox="0 0 22 38" fill="none" xmlns="http://www.w3.org/2000/svg">
<g id="question">
<path id="Vector" d="M1 9.29996C1 9.29996 1.14938 5.87673 4.47925 3.13192C6.45643 1.50225 8.83091 1.03026 10.9585 1.00122C12.9014 0.977358 14.638 1.3062 15.6763 1.81242C17.4512 2.68171 20.917 4.79789 20.917 9.29996C20.917 14.0375 17.89 16.1848 14.4492 18.551C11.0083 20.9172 10.1286 23.2377 10.1286 25.8975" stroke="black" stroke-width="2" stroke-miterlimit="10" stroke-linecap="round"/>
<path id="Vector_2" d="M10.1286 37.0997C11.9619 37.0997 13.4481 35.6135 13.4481 33.7802C13.4481 31.9469 11.9619 30.4607 10.1286 30.4607C8.29527 30.4607 6.80908 31.9469 6.80908 33.7802C6.80908 35.6135 8.29527 37.0997 10.1286 37.0997Z" fill="black"/>
</g>
</svg>
