<svg width="18" height="18" viewBox="0 0 18 18" fill="none" xmlns="http://www.w3.org/2000/svg">
<g id="question icon">
<path id="Vector" d="M9 1C7.41775 1 5.87103 1.46919 4.55544 2.34824C3.23985 3.22729 2.21447 4.47672 1.60897 5.93853C1.00347 7.40034 0.84504 9.00887 1.15372 10.5607C1.4624 12.1126 2.22433 13.538 3.34315 14.6569C4.46197 15.7757 5.88743 16.5376 7.43928 16.8463C8.99113 17.155 10.5997 16.9965 12.0615 16.391C13.5233 15.7855 14.7727 14.7602 15.6518 13.4446C16.5308 12.129 17 10.5822 17 9C17 6.87827 16.1571 4.84344 14.6569 3.34315C13.1566 1.84285 11.1217 1 9 1Z" stroke="black" stroke-miterlimit="10"/>
<path id="Vector_2" d="M6.33325 6.25925C6.33325 6.25925 6.37325 5.49842 7.26516 4.84324C7.7942 4.45413 8.42849 4.34153 8.99992 4.3337C9.52039 4.32762 9.98516 4.40631 10.2633 4.52717C10.7394 4.73412 11.6666 5.23931 11.6666 6.31359C11.6666 7.44397 10.8571 7.95742 9.93468 8.52217C9.0123 9.08692 8.76182 9.69993 8.76182 10.3334" stroke="black" stroke-miterlimit="10" stroke-linecap="round"/>
<path id="Vector_3" d="M8.66675 13.6667C9.21903 13.6667 9.66675 13.3682 9.66675 13C9.66675 12.6319 9.21903 12.3334 8.66675 12.3334C8.11446 12.3334 7.66675 12.6319 7.66675 13C7.66675 13.3682 8.11446 13.6667 8.66675 13.6667Z" fill="black"/>
</g>
</svg>
