<svg width="69" height="12" viewBox="0 0 69 12" fill="none" xmlns="http://www.w3.org/2000/svg">
<g id="rating1">
<path id="Vector" d="M11.1239 11.9987C11.0248 11.9991 10.9281 11.9709 10.8475 11.9184L7.06235 9.42122L3.27715 11.9184C3.19628 11.9717 3.09885 12.0003 2.99895 12C2.89906 11.9997 2.80186 11.9704 2.72142 11.9165C2.64098 11.8626 2.58146 11.7868 2.55148 11.7001C2.52149 11.6134 2.52258 11.5203 2.5546 11.4341L4.03089 7.45516L0.204784 5.06755C0.121908 5.01589 0.0593576 4.94147 0.0262727 4.85516C-0.00681226 4.76884 -0.00869815 4.67517 0.0208906 4.58781C0.0504794 4.50045 0.109992 4.424 0.190733 4.36961C0.271475 4.31522 0.369213 4.28576 0.469668 4.28552H5.18991L6.6144 0.296349C6.64508 0.210224 6.70496 0.135157 6.78544 0.0819173C6.86591 0.0286771 6.96285 0 7.06235 0C7.16184 0 7.25878 0.0286771 7.33926 0.0819173C7.41973 0.135157 7.47961 0.210224 7.51029 0.296349L8.93478 4.28686H13.655C13.7556 4.28681 13.8536 4.31607 13.9345 4.37035C14.0155 4.42464 14.0753 4.50109 14.1051 4.58851C14.1348 4.67593 14.1331 4.76974 14.1 4.85618C14.067 4.94262 14.0044 5.01716 13.9214 5.06889L10.0938 7.45516L11.5692 11.4331C11.5931 11.4975 11.5998 11.5661 11.5888 11.6334C11.5778 11.7006 11.5494 11.7645 11.5059 11.8198C11.4624 11.875 11.405 11.9201 11.3386 11.9512C11.2722 11.9823 11.1986 11.9986 11.1239 11.9987Z" fill="#EEA14A"/>
<path id="Vector_2" d="M29.2861 11.9987C29.187 11.9991 29.0903 11.9709 29.0098 11.9184L25.2246 9.42122L21.4394 11.9184C21.3585 11.9717 21.2611 12.0003 21.1612 12C21.0613 11.9997 20.9641 11.9704 20.8837 11.9165C20.8032 11.8626 20.7437 11.7868 20.7137 11.7001C20.6837 11.6134 20.6848 11.5203 20.7168 11.4341L22.1931 7.45516L18.367 5.06755C18.2841 5.01589 18.2216 4.94147 18.1885 4.85516C18.1554 4.76884 18.1535 4.67517 18.1831 4.58781C18.2127 4.50045 18.2722 4.424 18.353 4.36961C18.4337 4.31522 18.5314 4.28576 18.6319 4.28552H23.3521L24.7766 0.296349C24.8073 0.210224 24.8672 0.135157 24.9477 0.0819173C25.0281 0.0286771 25.1251 0 25.2246 0C25.3241 0 25.421 0.0286771 25.5015 0.0819173C25.582 0.135157 25.6418 0.210224 25.6725 0.296349L27.097 4.28686H31.8173C31.9178 4.28681 32.0158 4.31607 32.0968 4.37035C32.1778 4.42464 32.2375 4.50109 32.2673 4.58851C32.2971 4.67593 32.2953 4.76974 32.2622 4.85618C32.2292 4.94262 32.1666 5.01716 32.0836 5.06889L28.256 7.45516L29.7314 11.4331C29.7553 11.4975 29.7621 11.5661 29.7511 11.6334C29.74 11.7006 29.7116 11.7645 29.6681 11.8198C29.6246 11.875 29.5673 11.9201 29.5009 11.9512C29.4344 11.9823 29.3608 11.9986 29.2861 11.9987Z" fill="#EEA14A"/>
<path id="Vector_3" d="M47.4484 11.9987C47.3493 11.9991 47.2525 11.9709 47.172 11.9184L43.3868 9.42122L39.6016 11.9184C39.5207 11.9717 39.4233 12.0003 39.3234 12C39.2235 11.9997 39.1263 11.9704 39.0459 11.9165C38.9654 11.8626 38.9059 11.7868 38.8759 11.7001C38.846 11.6134 38.847 11.5203 38.8791 11.4341L40.3554 7.45516L36.5292 5.06755C36.4464 5.01589 36.3838 4.94147 36.3507 4.85516C36.3177 4.76884 36.3158 4.67517 36.3454 4.58781C36.3749 4.50045 36.4345 4.424 36.5152 4.36961C36.5959 4.31522 36.6937 4.28576 36.7941 4.28552H41.5144L42.9389 0.296349C42.9695 0.210224 43.0294 0.135157 43.1099 0.0819173C43.1904 0.0286771 43.2873 0 43.3868 0C43.4863 0 43.5832 0.0286771 43.6637 0.0819173C43.7442 0.135157 43.8041 0.210224 43.8348 0.296349L45.2592 4.28686H49.9795C50.0801 4.28681 50.178 4.31607 50.259 4.37035C50.34 4.42464 50.3997 4.50109 50.4295 4.58851C50.4593 4.67593 50.4575 4.76974 50.4245 4.85618C50.3914 4.94262 50.3288 5.01716 50.2458 5.06889L46.4183 7.45516L47.8937 11.4331C47.9176 11.4975 47.9243 11.5661 47.9133 11.6334C47.9023 11.7006 47.8738 11.7645 47.8303 11.8198C47.7868 11.875 47.7295 11.9201 47.6631 11.9512C47.5967 11.9823 47.5231 11.9986 47.4484 11.9987Z" fill="#EEA14A"/>
<path id="Vector_4" d="M65.6105 11.9987C65.5114 11.9991 65.4147 11.9709 65.3341 11.9184L61.5489 9.42122L57.7637 11.9184C57.6829 11.9717 57.5854 12.0003 57.4855 12C57.3856 11.9997 57.2884 11.9704 57.208 11.9165C57.1276 11.8626 57.068 11.7868 57.0381 11.7001C57.0081 11.6134 57.0092 11.5203 57.0412 11.4341L58.5175 7.45516L54.6914 5.06755C54.6085 5.01589 54.5459 4.94147 54.5128 4.85516C54.4798 4.76884 54.4779 4.67517 54.5075 4.58781C54.5371 4.50045 54.5966 4.424 54.6773 4.36961C54.758 4.31522 54.8558 4.28576 54.9562 4.28552H59.6765L61.101 0.296349C61.1317 0.210224 61.1915 0.135157 61.272 0.0819173C61.3525 0.0286771 61.4494 0 61.5489 0C61.6484 0 61.7454 0.0286771 61.8258 0.0819173C61.9063 0.135157 61.9662 0.210224 61.9969 0.296349L63.4214 4.28686H68.1416C68.2422 4.28681 68.3402 4.31607 68.4211 4.37035C68.5021 4.42464 68.5619 4.50109 68.5917 4.58851C68.6214 4.67593 68.6197 4.76974 68.5866 4.85618C68.5536 4.94262 68.491 5.01716 68.408 5.06889L64.5804 7.45516L66.0558 11.4331C66.0797 11.4975 66.0864 11.5661 66.0754 11.6334C66.0644 11.7006 66.036 11.7645 65.9925 11.8198C65.949 11.875 65.8916 11.9201 65.8252 11.9512C65.7588 11.9823 65.6852 11.9986 65.6105 11.9987Z" fill="#EEA14A"/>
</g>
</svg>
