<svg width="89" height="12" viewBox="0 0 89 12" fill="none" xmlns="http://www.w3.org/2000/svg">
<g id="rating1">
<path id="Vector" d="M11.9063 11.9987C11.8053 11.9991 11.7067 11.9709 11.6246 11.9184L7.76612 9.42122L3.90762 11.9184C3.82519 11.9717 3.72588 12.0003 3.62404 12C3.52221 11.9997 3.42313 11.9704 3.34114 11.9165C3.25914 11.8626 3.19847 11.7868 3.1679 11.7001C3.13733 11.6134 3.13845 11.5203 3.17109 11.4341L4.67596 7.45516L0.775766 5.06755C0.691285 5.01589 0.627524 4.94147 0.593798 4.85516C0.560072 4.76884 0.55815 4.67517 0.588312 4.58781C0.618473 4.50045 0.679139 4.424 0.761443 4.36961C0.843748 4.31522 0.943379 4.28576 1.04578 4.28552H5.85742L7.3095 0.296349C7.34078 0.210224 7.40181 0.135157 7.48385 0.0819173C7.56588 0.0286771 7.6647 0 7.76612 0C7.86754 0 7.96636 0.0286771 8.04839 0.0819173C8.13043 0.135157 8.19146 0.210224 8.22274 0.296349L9.67482 4.28686H14.4865C14.589 4.28681 14.6888 4.31607 14.7714 4.37035C14.8539 4.42464 14.9149 4.50109 14.9452 4.58851C14.9756 4.67593 14.9738 4.76974 14.9401 4.85618C14.9064 4.94262 14.8426 5.01716 14.758 5.06889L10.8563 7.45516L12.3603 11.4331C12.3846 11.4975 12.3915 11.5661 12.3802 11.6334C12.369 11.7006 12.34 11.7645 12.2957 11.8198C12.2513 11.875 12.1929 11.9201 12.1252 11.9512C12.0575 11.9823 11.9825 11.9986 11.9063 11.9987Z" fill="#EEA14A"/>
<path id="Vector_2" d="M30.4202 11.9987C30.3192 11.9991 30.2206 11.9709 30.1385 11.9184L26.28 9.42122L22.4215 11.9184C22.3391 11.9717 22.2398 12.0003 22.138 12C22.0361 11.9997 21.937 11.9704 21.855 11.9165C21.7731 11.8626 21.7124 11.7868 21.6818 11.7001C21.6512 11.6134 21.6524 11.5203 21.685 11.4341L23.1899 7.45516L19.2897 5.06755C19.2052 5.01589 19.1414 4.94147 19.1077 4.85516C19.074 4.76884 19.0721 4.67517 19.1022 4.58781C19.1324 4.50045 19.1931 4.424 19.2754 4.36961C19.3577 4.31522 19.4573 4.28576 19.5597 4.28552H24.3713L25.8234 0.296349C25.8547 0.210224 25.9157 0.135157 25.9978 0.0819173C26.0798 0.0286771 26.1786 0 26.28 0C26.3815 0 26.4803 0.0286771 26.5623 0.0819173C26.6443 0.135157 26.7054 0.210224 26.7367 0.296349L28.1887 4.28686H33.0004C33.1029 4.28681 33.2027 4.31607 33.2853 4.37035C33.3678 4.42464 33.4288 4.50109 33.4591 4.58851C33.4895 4.67593 33.4877 4.76974 33.454 4.85618C33.4203 4.94262 33.3565 5.01716 33.2719 5.06889L29.3702 7.45516L30.8742 11.4331C30.8985 11.4975 30.9054 11.5661 30.8942 11.6334C30.8829 11.7006 30.8539 11.7645 30.8096 11.8198C30.7653 11.875 30.7068 11.9201 30.6391 11.9512C30.5714 11.9823 30.4964 11.9986 30.4202 11.9987Z" fill="#EEA14A"/>
<path id="Vector_3" d="M48.9342 11.9987C48.8331 11.9991 48.7345 11.9709 48.6524 11.9184L44.7939 9.42122L40.9355 11.9184C40.853 11.9717 40.7537 12.0003 40.6519 12C40.55 11.9997 40.451 11.9704 40.369 11.9165C40.287 11.8626 40.2263 11.7868 40.1957 11.7001C40.1652 11.6134 40.1663 11.5203 40.1989 11.4341L41.7038 7.45516L37.8036 5.06755C37.7191 5.01589 37.6554 4.94147 37.6216 4.85516C37.5879 4.76884 37.586 4.67517 37.6161 4.58781C37.6463 4.50045 37.707 4.424 37.7893 4.36961C37.8716 4.31522 37.9712 4.28576 38.0736 4.28552H42.8853L44.3373 0.296349C44.3686 0.210224 44.4296 0.135157 44.5117 0.0819173C44.5937 0.0286771 44.6925 0 44.7939 0C44.8954 0 44.9942 0.0286771 45.0762 0.0819173C45.1583 0.135157 45.2193 0.210224 45.2506 0.296349L46.7026 4.28686H51.5143C51.6168 4.28681 51.7167 4.31607 51.7992 4.37035C51.8818 4.42464 51.9427 4.50109 51.973 4.58851C52.0034 4.67593 52.0016 4.76974 51.9679 4.85618C51.9342 4.94262 51.8704 5.01716 51.7858 5.06889L47.8841 7.45516L49.3881 11.4331C49.4124 11.4975 49.4193 11.5661 49.4081 11.6334C49.3968 11.7006 49.3679 11.7645 49.3235 11.8198C49.2792 11.875 49.2207 11.9201 49.153 11.9512C49.0853 11.9823 49.0103 11.9986 48.9342 11.9987Z" fill="#EEA14A"/>
<path id="Vector_4" d="M67.448 11.9987C67.3469 11.9991 67.2483 11.9709 67.1663 11.9184L63.3078 9.42122L59.4493 11.9184C59.3668 11.9717 59.2675 12.0003 59.1657 12C59.0638 11.9997 58.9648 11.9704 58.8828 11.9165C58.8008 11.8626 58.7401 11.7868 58.7095 11.7001C58.679 11.6134 58.6801 11.5203 58.7127 11.4341L60.2176 7.45516L56.3174 5.06755C56.2329 5.01589 56.1691 4.94147 56.1354 4.85516C56.1017 4.76884 56.0998 4.67517 56.1299 4.58781C56.1601 4.50045 56.2208 4.424 56.3031 4.36961C56.3854 4.31522 56.485 4.28576 56.5874 4.28552H61.3991L62.8511 0.296349C62.8824 0.210224 62.9434 0.135157 63.0255 0.0819173C63.1075 0.0286771 63.2063 0 63.3078 0C63.4092 0 63.508 0.0286771 63.59 0.0819173C63.6721 0.135157 63.7331 0.210224 63.7644 0.296349L65.2165 4.28686H70.0281C70.1306 4.28681 70.2305 4.31607 70.313 4.37035C70.3956 4.42464 70.4565 4.50109 70.4868 4.58851C70.5172 4.67593 70.5154 4.76974 70.4817 4.85618C70.448 4.94262 70.3842 5.01716 70.2996 5.06889L66.3979 7.45516L67.9019 11.4331C67.9263 11.4975 67.9331 11.5661 67.9219 11.6334C67.9107 11.7006 67.8817 11.7645 67.8373 11.8198C67.793 11.875 67.7345 11.9201 67.6668 11.9512C67.5991 11.9823 67.5241 11.9986 67.448 11.9987Z" fill="#EEA14A"/>
<path id="Vector_5" d="M85.6801 11.9987C85.5791 11.9991 85.4805 11.9709 85.3984 11.9184L81.5399 9.42122L77.6814 11.9184C77.599 11.9717 77.4997 12.0003 77.3978 12C77.296 11.9997 77.1969 11.9704 77.1149 11.9165C77.0329 11.8626 76.9723 11.7868 76.9417 11.7001C76.9111 11.6134 76.9122 11.5203 76.9449 11.4341L78.4498 7.45516L74.5496 5.06755C74.4651 5.01589 74.4013 4.94147 74.3676 4.85516C74.3339 4.76884 74.332 4.67517 74.3621 4.58781C74.3923 4.50045 74.4529 4.424 74.5352 4.36961C74.6176 4.31522 74.7172 4.28576 74.8196 4.28552H79.6312L81.0833 0.296349C81.1146 0.210224 81.1756 0.135157 81.2576 0.0819173C81.3397 0.0286771 81.4385 0 81.5399 0C81.6413 0 81.7402 0.0286771 81.8222 0.0819173C81.9042 0.135157 81.9653 0.210224 81.9965 0.296349L83.4486 4.28686H88.2603C88.3628 4.28681 88.4626 4.31607 88.5452 4.37035C88.6277 4.42464 88.6886 4.50109 88.719 4.58851C88.7493 4.67593 88.7475 4.76974 88.7139 4.85618C88.6802 4.94262 88.6163 5.01716 88.5318 5.06889L84.6301 7.45516L86.134 11.4331C86.1584 11.4975 86.1653 11.5661 86.154 11.6334C86.1428 11.7006 86.1138 11.7645 86.0695 11.8198C86.0251 11.875 85.9667 11.9201 85.899 11.9512C85.8313 11.9823 85.7563 11.9986 85.6801 11.9987Z" fill="#EEA14A"/>
</g>
</svg>
