<svg width="21" height="14" viewBox="0 0 21 14" fill="none" xmlns="http://www.w3.org/2000/svg">
<path id="video" d="M19.6 12.7954C19.404 12.7952 19.2103 12.7526 19.0312 12.6703C18.9896 12.6513 18.9499 12.628 18.9127 12.6008L15.2941 9.97285C15.1106 9.83956 14.9608 9.66271 14.8574 9.45721C14.754 9.2517 14.7 9.02356 14.7 8.79201V5.20799C14.7 4.97644 14.754 4.7483 14.8574 4.54279C14.9608 4.33729 15.1106 4.16044 15.2941 4.02715L18.9127 1.39917C18.9499 1.37201 18.9896 1.34873 19.0312 1.32965C19.2444 1.23188 19.4779 1.19061 19.7104 1.20958C19.9429 1.22856 20.1672 1.30719 20.3628 1.43832C20.5584 1.56946 20.7191 1.74894 20.8304 1.96046C20.9417 2.17198 21 2.40884 21 2.64951V11.3505C21 11.7336 20.8525 12.101 20.5899 12.3719C20.3274 12.6427 19.9713 12.7949 19.6 12.7949V12.7954ZM11.025 13.5H2.975C2.18623 13.4992 1.43 13.1755 0.872253 12.6001C0.314508 12.0246 0.000810718 11.2444 0 10.4306V3.56944C0.000810718 2.75563 0.314508 1.97539 0.872253 1.39994C1.43 0.824492 2.18623 0.500836 2.975 0.5H11.046C11.8292 0.500956 12.58 0.822367 13.1338 1.39373C13.6876 1.96509 13.9991 2.73975 14 3.54778V10.4306C13.9992 11.2444 13.6855 12.0246 13.1277 12.6001C12.57 13.1755 11.8138 13.4992 11.025 13.5Z" fill="white"/>
</svg>
